<?xml version="1.0" encoding="UTF-8"?>
<svg id="_レイヤー_1" data-name="レイヤー_1" xmlns="http://www.w3.org/2000/svg" version="1.1" viewBox="0 0 120 120">
  <!-- Generator: Adobe Illustrator 29.2.1, SVG Export Plug-In . SVG Version: 2.1.0 Build 116)  -->
  <defs>
    <style>
      .st0 {
        fill: #fff;
      }
    </style>
  </defs>
  <path id="_中マド_12" data-name="中マド_12" class="st0" d="M58.7,119.2h0c-1.8,0-3.7-.2-5.5-.4-.5-1.7-1-3.5-1.6-5.7h-.2c-.8-.2-1.6-.3-2.4-.4-.8-.2-1.6-.4-2.3-.6h-.2c-1.4,1.8-2.6,3.3-3.7,4.6-1.8-.5-3.5-1.2-5.2-1.8,0-1.7,0-3.6,0-6h-.2c-.7-.4-1.5-.8-2.2-1.1s-1.5-.8-2.2-1.2h-.1c-1.7,1.3-3.3,2.4-4.9,3.4-1.6-1-3.1-2.1-4.5-3.2.4-1.7,1-3.5,1.7-5.7l-.3-.2h0c-.6-.5-1.2-1-1.7-1.5s-1.1-1.1-1.6-1.6h0s-.2-.3-.2-.3c-2.1.9-3.9,1.5-5.6,2.1-1.2-1.4-2.4-2.8-3.5-4.3.9-1.7,2-3.3,3.1-5.1h0c-.5-.8-.9-1.5-1.4-2.2-.4-.7-.8-1.3-1.1-2l-.2-.3c-2.4.3-4.2.4-6,.5-.8-1.7-1.6-3.4-2.2-5.1,1.3-1.3,2.7-2.5,4.4-4v-.2c-.3-.7-.6-1.5-.8-2.3s-.4-1.6-.6-2.4v-.2c-2.3-.4-4.2-.7-5.9-1.2-.3-1.8-.6-3.7-.8-5.5,1.6-.9,3.3-1.7,5.3-2.7v-.2c0-.8,0-1.6,0-2.4,0-.8,0-1.7,0-2.5h0c-2-1-3.7-1.9-5.3-2.8.2-1.9.4-3.7.7-5.5,1.8-.4,3.7-.8,5.9-1.2v-.2c.2-.8.4-1.6.6-2.4.2-.8.5-1.6.8-2.5-1.6-1.4-3.1-2.7-4.4-4,.7-1.7,1.4-3.4,2.2-5.1,1.8,0,3.7.2,6,.5.5-.9.9-1.6,1.3-2.3s.9-1.4,1.4-2.1h0c-1.3-2-2.3-3.6-3.2-5.2,1.1-1.5,2.3-2.9,3.5-4.3,1.7.6,3.6,1.2,5.6,2l.2-.2c.5-.6,1.1-1.1,1.7-1.7s1.2-1,1.8-1.5l.2-.2c-.7-2.2-1.2-4-1.7-5.7,1.5-1.2,3-2.2,4.5-3.2,1.5,1,3,2,4.9,3.5l.4-.2c.6-.4,1.3-.7,1.9-1.1s1.3-.6,2-.9h0s.4-.2.4-.2c0-2.3-.1-4.2,0-6,1.7-.7,3.4-1.3,5.2-1.9,1.2,1.3,2.4,2.8,3.7,4.7h.5c.7-.3,1.3-.5,2-.6.8-.2,1.7-.3,2.5-.4h.1c.5-2.3,1-4.1,1.6-5.8,1.8-.2,3.7-.3,5.5-.4.8,1.7,1.6,3.5,2.3,5.5h0c.9,0,1.7,0,2.6,0,.7,0,1.4.1,2.1.2h.5c1.1-1.9,2.1-3.6,3-5.1,1.8.3,3.6.7,5.4,1.1.3,1.8.5,3.6.8,5.9h0c.8.2,1.7.5,2.5.8.7.2,1.3.5,1.9.7l.5.2c1.4-1.5,2.9-2.8,4.3-4.1,1.6.7,3.3,1.6,4.9,2.5-.2,1.8-.5,3.7-.9,5.9l.4.3c.6.4,1.2.8,1.8,1.2.7.5,1.4,1,2.1,1.6h0c1.9-1,3.6-1.9,5.3-2.8,1.4,1.2,2.8,2.4,4,3.8-.7,1.7-1.5,3.5-2.4,5.5h0c.6.6,1.2,1.3,1.7,2,.5.6.9,1.1,1.3,1.7l.3.4c2.1-.5,4-1,5.8-1.3,1.1,1.6,2,3.2,2.9,4.7-1.1,1.5-2.4,3-3.8,4.6l.2.5c.3.6.6,1.2.9,1.9.3.7.6,1.5.9,2.2v.2c2.3,0,4.2.2,6.1.3.6,1.8,1.1,3.6,1.5,5.3-1.4,1.1-3,2.2-4.9,3.4v.4c.2.7.3,1.5.4,2.2.1.9.2,1.8.3,2.6,2.1.6,3.9,1.3,5.7,1.9,0,1.8,0,3.7,0,5.5-1.6.6-3.4,1.2-5.6,2v.3c0,.8-.2,1.5-.3,2.3,0,.7-.2,1.4-.3,2.1,0,.2,0,.3,0,.5,1.9,1.2,3.5,2.3,4.9,3.4-.4,1.8-.9,3.6-1.5,5.3-1.8.2-3.7.3-6,.4v.3c-.1,0-.1,0-.1,0-.3.7-.5,1.4-.8,2.1s-.6,1.4-1,2.1v.3c1.4,1.8,2.6,3.2,3.7,4.6-.9,1.6-1.8,3.2-2.9,4.7-1.8-.3-3.6-.7-5.8-1.3v.2c-.6.6-1.1,1.3-1.6,1.9-.6.7-1.2,1.4-1.7,2,1,2,1.8,3.8,2.4,5.4-1.3,1.3-2.7,2.6-4,3.8-1.6-.8-3.3-1.6-5.3-2.8l-.3.2c-.6.5-1.2.9-1.8,1.4-.7.5-1.3.9-2,1.3h-.2c.4,2.4.7,4.2.9,6-1.5.9-3.2,1.7-4.9,2.5-1.4-1.3-2.9-2.6-4.3-4.1h-.2c-.7.4-1.5.7-2.2,1s-1.6.5-2.3.7h-.2c-.2,2.3-.4,4.2-.8,6-1.8.5-3.6.8-5.4,1.1-1-1.5-2-3.2-3-5.1-.9.1-1.8.2-2.6.3-.9,0-1.8,0-2.6,0-.8,2.1-1.5,3.9-2.3,5.5h0ZM59.7,13.9c-25.4,0-45.9,20.7-45.9,46,0,25.4,20.7,45.9,46,45.9,25.4,0,45.9-20.6,45.9-46,0-25.4-20.6-46-46-46h0Z"/>
</svg>