<?xml version="1.0" encoding="UTF-8"?>
<svg id="_レイヤー_1" data-name="レイヤー_1" xmlns="http://www.w3.org/2000/svg" version="1.1" viewBox="0 0 50 50">
  <!-- Generator: Adobe Illustrator 29.2.1, SVG Export Plug-In . SVG Version: 2.1.0 Build 116)  -->
  <defs>
    <style>
      .st0 {
        fill: #fff;
      }
    </style>
  </defs>
  <g id="_中マド_4-2" data-name="中マド_4-2">
    <path class="st0" d="M35.1,2.8c2.9,1.2,5.5,3,7.7,5.2,2.2,2.2,4,4.8,5.2,7.7,1.3,3,1.9,6.1,1.9,9.4s-.6,6.4-1.9,9.4c-1.2,2.9-3,5.4-5.2,7.7-2.2,2.2-4.8,4-7.7,5.2-3,1.3-6.1,1.9-9.4,1.9h-1.4c-3.3,0-6.4-.6-9.4-1.9-2.9-1.2-5.4-2.9-7.7-5.2-2.2-2.2-4-4.8-5.2-7.7C.8,31.4.2,28.3.2,25s.6-6.4,1.9-9.4c1.2-2.9,3-5.4,5.2-7.7,2.2-2.2,4.8-3.9,7.7-5.2,3-1.3,6.1-1.9,9.4-1.9h1.4c3.3,0,6.4.6,9.4,1.9ZM22.7,32.7l11.1-7.7,1.1-.8-1.1-.8-11.1-7.6-1.5-1v1.8s0,15.3,0,15.3v1.8s1.5-1,1.5-1Z"/>
  </g>
</svg>