<?xml version="1.0" encoding="utf-8"?>
<!-- Generator: Adobe Illustrator 28.3.0, SVG Export Plug-In . SVG Version: 6.00 Build 0)  -->
<svg version="1.1" id="nintendo-switch-logo" xmlns="http://www.w3.org/2000/svg" xmlns:xlink="http://www.w3.org/1999/xlink"
	 x="0px" y="0px" viewBox="0 0 340.2 100" style="enable-background:new 0 0 340.2 100;" xml:space="preserve">
<style type="text/css">
	.st0{fill:#ffffff;}
</style>
<path class="st0" d="M52.1,18.6c5.8,1.1,14.3,3.6,18.9,5.2c11.6,4,15.5,9,15.5,20.1c0,10.9-6.7,15-15.3,10.9V34.4
	c0-2.4-0.4-4.6-2.7-5.2c-1.7-0.5-2.8,1-2.8,3.4v50.8l-13.7-4.3V18.6 M68.5,82.5l29.9-10.7c0,0,4-1.5,5.7-3.6
	c1.6-2.1,0.9-5.1-5.6-7.1c-5.7-2.2-13-2.9-19-2.2c-6,0.6-10.2,2.1-10.2,2.1l-0.8,0.3v8.3l14.7-5.2c2.5-0.9,6.2-1.1,8.2-0.4
	c2,0.7,1.6,1.9-0.9,2.8l-22,7.8V82.5z M27,73.8c7.1,2.4,14.3,2.8,21.1,1.7c0.4-0.1,0.9-0.1,1.4-0.2v-7.1l-6.8,2.4
	c-2.5,0.9-6.1,1.1-8.2,0.4c-2-0.7-1.6-1.9,0.9-2.8l14.1-5.1v-8l-19.6,7c0,0-4.8,1.5-7.5,3.6C19.3,68,20.4,71.9,27,73.8 M99.4,77
	c-1.9,0-3.3,1.4-3.3,3.2c0,1.8,1.3,3.2,3.3,3.2c1.9,0,3.2-1.4,3.2-3.2C102.6,78.4,101.3,77,99.4,77 M99.4,83c-1.7,0-2.7-1.2-2.7-2.8
	c0-1.5,1.1-2.8,2.7-2.8c1.6,0,2.7,1.2,2.7,2.8C102.1,81.7,101,83,99.4,83 M98.1,82.1h0.7v-1.6h0.4c0.6,0,0.7,0.1,0.8,0.6
	c0.1,0.3,0.2,0.7,0.3,1h0.7c-0.1-0.4-0.2-0.8-0.4-1.2c-0.1-0.4-0.3-0.6-0.5-0.7v0c0.5-0.1,0.7-0.5,0.7-0.9c0-0.8-0.5-1-1.2-1h-1.5
	V82.1z M98.8,78.8h0.6c0.4,0,0.7,0.1,0.7,0.6c0,0.4-0.3,0.6-0.8,0.6h-0.6V78.8z M205.5,70.5c5.8,0,10.5-4.7,10.5-10.5V42
	c0-3.5,2.8-6.3,6.3-6.3h20.3c0.2,0,0.3-0.1,0.3-0.3v-3.6c0-0.2-0.1-0.3-0.3-0.3h-24.5c-5.8,0-10.5,4.7-10.5,10.5v18
	c0,3.5-2.8,6.3-6.3,6.3h-20c-0.2,0-0.3,0.1-0.3,0.3v3.6c0,0.2,0.1,0.3,0.3,0.3H205.5z M251.3,46.2c0,3.5,2.8,6.3,6.3,6.3h35.8
	c3.8,0,7,3.1,7,6.9c0,3.8-3.1,6.9-6.9,6.9c0,0-31.4,0-41.8,0c-0.2,0-0.3,0.1-0.3,0.3v3.6c0,0.2,0.1,0.3,0.3,0.3h46
	c6.1,0,11.1-5,11.1-11.1c0-6.1-5-11.1-11.1-11.1h-35c-1.7,0-3-1.3-3-3V36c0-0.2,0.1-0.3,0.3-0.3h47c0.2,0,0.3-0.1,0.3-0.3v-3.6
	c0-0.2-0.1-0.3-0.3-0.3h-55.3c-0.2,0-0.3,0.1-0.3,0.3C251.3,34,251.3,40.9,251.3,46.2 M136.9,48.3c-5.8,0-10.5,4.7-10.5,10.5
	c0,0,0,8.3,0,11.4c0,0.2,0.1,0.3,0.3,0.3h7.8c0.2,0,0.3-0.1,0.3-0.3V58.8c0-3.5,2.8-6.3,6.3-6.3h32.2c5.8,0,10.5-4.7,10.5-10.5
	c0-5.8-4.7-10.5-10.5-10.5h-46.6c-0.2,0-0.3,0.1-0.3,0.3v3.6c0,0.2,0.1,0.3,0.3,0.3h42.4c3.5,0,6.3,2.8,6.3,6.3
	c0,3.5-2.8,6.3-6.3,6.3H136.9z M319.5,67.2c0,1.8-1.3,3.2-3.2,3.2c-1.9,0-3.3-1.4-3.3-3.2c0-1.8,1.3-3.2,3.3-3.2
	C318.2,63.9,319.5,65.4,319.5,67.2z M318.9,67.2c0-1.5-1.1-2.8-2.7-2.8c-1.7,0-2.7,1.2-2.7,2.8c0,1.5,1.1,2.8,2.7,2.8
	C317.9,69.9,318.9,68.7,318.9,67.2z M317.5,67.9c0.1,0.4,0.3,0.8,0.4,1.2h-0.7c-0.1-0.3-0.2-0.8-0.3-1c-0.1-0.4-0.2-0.6-0.8-0.6
	h-0.4V69h-0.7v-3.8h1.5c0.7,0,1.2,0.2,1.2,1c0,0.4-0.2,0.8-0.7,0.9v0C317.2,67.2,317.3,67.4,317.5,67.9z M317,66.3
	c0-0.5-0.4-0.6-0.7-0.6h-0.6V67h0.6C316.7,67,317,66.8,317,66.3z"/>
</svg>
