<?xml version="1.0" encoding="utf-8"?>
<!-- Generator: Adobe Illustrator 28.3.0, SVG Export Plug-In . SVG Version: 6.00 Build 0)  -->
<svg version="1.1" id="nintendo-switch-logo" xmlns="http://www.w3.org/2000/svg" xmlns:xlink="http://www.w3.org/1999/xlink"
	 x="0px" y="0px" viewBox="0 0 291.7 100" style="enable-background:new 0 0 291.7 100;" xml:space="preserve">
<style type="text/css">
	.st0{clip-path:url(#SVGID_00000076566164995184795940000012705699158589940882_);}
	.st1{fill:#ffffff;}
</style>
<g>
	<defs>
		<rect id="SVGID_1_" x="20.5" y="12" width="250.6" height="75.5"/>
	</defs>
	<clipPath id="SVGID_00000052803218570162897130000007702796663163955340_">
		<use xlink:href="#SVGID_1_"  style="overflow:visible;"/>
	</clipPath>
	
		<g id="グループ_144" transform="translate(0 0)" style="clip-path:url(#SVGID_00000052803218570162897130000007702796663163955340_);">
		<path id="パス_64" class="st1" d="M58.2,12c-19.7,0-36.1,15.1-37.6,34.7l20.2,8.4c1.8-1.2,3.9-1.9,6-1.9c0.2,0,0.4,0,0.6,0
			l9-13.1c0-0.1,0-0.1,0-0.2c0-7.9,6.4-14.2,14.2-14.2s14.2,6.4,14.2,14.2c0,7.9-6.4,14.2-14.2,14.2c-0.1,0-0.2,0-0.3,0l-12.8,9.2
			c0,0.2,0,0.3,0,0.5c0,5.9-4.8,10.7-10.7,10.7c-5.1,0-9.5-3.6-10.5-8.6l-14.5-6c5.7,20.1,26.6,31.7,46.6,26s31.7-26.6,26-46.6
			C89.9,23.2,75.1,12,58.2,12"/>
		<path id="パス_65" class="st1" d="M44.2,69.3l-4.6-1.9c1.9,4,6.7,5.7,10.7,3.8c4-1.9,5.7-6.7,3.8-10.7c-1.8-3.8-6.2-5.5-10.1-4
			l4.8,2c3,1.3,4.4,4.8,3.1,7.8C50.6,69.1,47.2,70.5,44.2,69.3"/>
		<path id="パス_66" class="st1" d="M80.1,40.1c0-5.2-4.2-9.5-9.5-9.5s-9.5,4.2-9.5,9.5s4.2,9.5,9.5,9.5
			C75.9,49.5,80.1,45.3,80.1,40.1 M63.5,40c0-3.9,3.2-7.1,7.1-7.1c3.9,0,7.1,3.2,7.1,7.1c0,3.9-3.2,7.1-7.1,7.1c0,0,0,0,0,0
			C66.7,47.2,63.5,44,63.5,40C63.5,40,63.5,40,63.5,40"/>
		<path id="パス_67" class="st1" d="M136.3,37.9l-2.5,4.4c-2-1.4-4.4-2.1-6.9-2.2c-2.6,0-4.3,1.1-4.3,3c0,2.4,2.9,2.9,7.2,4.5
			c4.6,1.6,7.3,3.6,7.3,7.8c0,5.8-4.6,9.1-11.1,9.1c-3.5,0-7-0.9-10-2.6l1.8-4.9c2.4,1.3,5.1,2,7.9,2c3.5,0,5.1-1.3,5.1-3.2
			c0-2.2-2.5-2.8-6.6-4.2c-4.6-1.5-7.8-3.6-7.8-8.3c0-5.3,4.2-8.3,10.3-8.3C131,35.1,134.4,36.4,136.3,37.9"/>
		<path id="パス_68" class="st1" d="M156.1,40.7V64h-6V40.7h-8.7v-5.1h23.2v5.1H156.1z"/>
		<path id="パス_69" class="st1" d="M177.3,40.7v6.4h11.4v5.1h-11.4v6.7h13.2V64h-19.2V35.6h19.2v5.1H177.3z"/>
		<path id="パス_70" class="st1" d="M203.8,58.5l-1.9,5.5h-6.2l10.7-28.5h6l11,28.5h-6.5l-1.9-5.5L203.8,58.5z M209.3,42.3
			l-3.9,11.4h7.9L209.3,42.3z"/>
		<path id="パス_71" class="st1" d="M253.9,46.6l-7.8,16.6h-3.4l-7.7-16.5V64h-5.7V35.6h5.7l9.6,20.5l9.2-20.5h5.7V64h-5.7
			L253.9,46.6z"/>
		<path id="パス_72" class="st1" d="M271.1,39.2c0,2.2-1.8,3.9-3.9,3.9c-2.2,0-3.9-1.8-3.9-3.9c0,0,0,0,0,0c0-2.2,1.8-3.9,3.9-3.9
			C269.4,35.2,271.1,37,271.1,39.2C271.1,39.1,271.1,39.1,271.1,39.2 M263.9,39.2c0,1.8,1.4,3.3,3.2,3.3c1.8,0,3.3-1.4,3.3-3.2
			c0,0,0-0.1,0-0.1c0-1.8-1.4-3.3-3.2-3.3C265.4,35.8,263.9,37.2,263.9,39.2C263.9,39.1,263.9,39.1,263.9,39.2 M267.2,37.1
			c1,0,1.4,0.5,1.4,1.1c0,0.5-0.3,0.9-0.7,1.1l0.9,1.7h-0.7l-0.8-1.5h-0.8V41h-0.6v-3.9H267.2z M266.5,38.9h0.7
			c0.4,0,0.7-0.2,0.7-0.6c0,0,0,0,0-0.1c0-0.4-0.2-0.6-0.7-0.6h-0.7L266.5,38.9z"/>
	</g>
</g>
</svg>
