<?xml version="1.0" encoding="utf-8"?>
<!-- Generator: Adobe Illustrator 27.0.1, SVG Export Plug-In . SVG Version: 6.00 Build 0)  -->
<svg version="1.1" id="nintendo-switch-logo" xmlns="http://www.w3.org/2000/svg" xmlns:xlink="http://www.w3.org/1999/xlink"
	 x="0px" y="0px" width="320px" height="100px" viewBox="0 0 320 100" style="enable-background:new 0 0 320 100;"
	 xml:space="preserve">
<style type="text/css">
	.st0{fill:#ffffff;}
</style>
<path class="st0" d="M28.7,38.2c0,3.1,2.5,5.6,5.6,5.6c3.1,0,5.6-2.5,5.6-5.6c0-3.1-2.5-5.6-5.6-5.6C31.2,32.6,28.7,35.1,28.7,38.2z
	 M63.5,20.4h-9.2c-0.2,0-0.4,0.2-0.4,0.4v58.4c0,0.2,0.2,0.4,0.4,0.4h9.1c8.4,0,15.2-6.8,15.2-15.2V35.6
	C78.7,27.2,71.9,20.4,63.5,20.4z M65.7,58.9c-3.3,0-6-2.7-6-6c0-3.3,2.7-6,6-6c3.3,0,6,2.7,6,6C71.7,56.3,69,58.9,65.7,58.9z
	 M47.6,20.4H34.7c-8.4,0-15.2,6.8-15.2,15.2v28.8c0,8.4,6.8,15.2,15.2,15.2h12.9c0.2,0,0.4-0.2,0.4-0.4V20.8
	C48.1,20.6,47.9,20.4,47.6,20.4z M43.3,74.8h-8.6c-2.8,0-5.4-1.1-7.4-3c-2-2-3-4.6-3-7.4V35.6c0-2.8,1.1-5.4,3-7.4c2-2,4.6-3,7.4-3
	h8.6V74.8z M140.8,27.2l8.3,11.1h3.3V21.7H149v10.9l-8.2-10.9h-3.4v16.6h3.4V27.2z M106.8,59.1c-4.5-0.7-7.5-1.6-7.5-3.7
	c0-2.4,3.3-3.4,7.6-3.4c4.1,0,8.1,1.5,9.6,2.2l2.2-5.4c-1.6-0.6-6.6-2.4-12.1-2.4c-6.8,0-14,3.3-14,9.4c0,5,3.5,7.5,12.5,9
	c6.3,1.1,9.8,1.7,9.7,4.4c-0.1,1.5-1.2,4-8.4,4c-5.7,0-9.8-2.1-11.2-2.9l-3,5.4c1.6,0.8,6.9,3.3,13.7,3.3c10,0,15.2-3.5,15.2-10
	C121.4,65.2,120.1,61.3,106.8,59.1z M97.2,27.2l8.3,11.1h3.3V21.7h-3.4v10.9l-8.2-10.9h-3.4v16.6h3.4V27.2z M156.6,69.5L150,46.8
	h-5.6l-6.6,22.7l-6-22.7h-6.8l8.9,31.3h7.5l5.8-20.7l5.8,20.7h7.6l8.9-31.3h-6.8L156.6,69.5z M124.9,21.7h-3.7v16.6h3.7V21.7z
	 M177.3,78.1h7V46.8h-7V78.1z M281.1,21.1c-4.9,0-8.9,4-8.9,8.9c0,4.9,4,8.9,8.9,8.9c4.9,0,8.8-4,8.8-8.9
	C290,25.1,286,21.1,281.1,21.1z M281.1,35.2c-2.8,0-5.2-2.3-5.2-5.2c0-2.9,2.3-5.2,5.2-5.2c2.8,0,5.2,2.3,5.2,5.2
	C286.3,32.8,284,35.2,281.1,35.2z M282.2,59.1h-14.6V46.8h-6.5v31.3h6.5V65.6h14.6v12.5h6.5V46.8h-6.5V59.1z M299.3,73.8l-1.1,3.1
	l-1.1-3.1h-1.2v4.3h0.8v-3.3l1.1,3.3l0,0h0.7l0,0l1.1-3.3v3.3h0.8v-4.3H299.3z M253,21.7h-6.9v16.6h6.9c4.7,0,8.5-3.7,8.5-8.3
	C261.5,25.4,257.7,21.7,253,21.7z M253.1,34.8h-3.6v-9.6h3.6c2.7,0,4.8,2.2,4.8,4.8C258,32.6,255.8,34.8,253.1,34.8z M291.5,74.7
	h1.3v3.5h0.8v-3.5h1.3v-0.8h-3.4V74.7z M240.2,52.7c3.5,0,6.8,1.9,8.6,4.9l5.1-4.4c-3.1-4.6-8.3-7.4-13.9-7.4
	c-9.2,0-16.7,7.5-16.7,16.7c0,9.2,7.5,16.7,16.7,16.7c5.6,0,10.8-2.8,13.9-7.4l-5.1-4.4c-1.8,3-5.1,4.9-8.6,4.9
	c-5.5,0-9.9-4.4-9.9-9.8C230.3,57.1,234.8,52.7,240.2,52.7z M203.4,35.2h-9.5v-3.9h8.8v-3h-8.8v-3.6h9.5v-3.1l-12.9,0v16.6l12.9,0
	V35.2z M191.9,53.4h10v24.7h6.7V53.4h9.8v-6.7h-26.6V53.4z M178.3,21.7h-14.1v3.5h5.3v13.1h3.6V25.2h5.2V21.7z M232,38.3V21.7h-3.4
	v10.9l-8.2-10.9h-3.4v16.6h3.4V27.2l8.3,11.1H232z"/>
</svg>
